<svg id="dragon-egg" xmlns="http://www.w3.org/2000/svg" xmlns:xlink="http://www.w3.org/1999/xlink" viewBox="0 0 512 512" shape-rendering="geometricPrecision" text-rendering="geometricPrecision"><style><![CDATA[#dragon-egg-g1_tr {animation: dragon-egg-g1_tr__tr 2000ms linear infinite normal forwards}@keyframes dragon-egg-g1_tr__tr { 0% {transform: translate(303.934147px,190.176241px) rotate(0deg)} 50% {transform: translate(303.934147px,190.176241px) rotate(13.509938deg)} 100% {transform: translate(303.934147px,190.176241px) rotate(-0.212960deg)} }]]></style><defs><linearGradient id="dragon-egg-path5-fill" x1="408.201200" y1="75.591800" x2="68.081800" y2="313.445100" spreadMethod="pad" gradientUnits="userSpaceOnUse"><stop id="dragon-egg-path5-fill-0" offset="0%" stop-color="rgb(255,183,127)"/><stop id="dragon-egg-path5-fill-1" offset="100%" stop-color="rgb(198,117,62)"/></linearGradient><linearGradient id="dragon-egg-path6-fill" x1="258.629900" y1="213.163100" x2="206.705400" y2="304.030900" spreadMethod="pad" gradientUnits="userSpaceOnUse"><stop id="dragon-egg-path6-fill-0" offset="0%" stop-color="rgb(255,183,127)"/><stop id="dragon-egg-path6-fill-1" offset="100%" stop-color="rgb(198,117,62)"/></linearGradient></defs><path id="dragon-egg-path1" d="M188.323000,143.619000C188.323000,143.619000,209.917000,154.124000,232.906000,146.430000C236.696000,145.162000,240.741000,147.514000,241.642000,151.408000C244.704000,164.638000,250.012000,192.518000,247.371000,217.682000L265.462000,226.614000C265.462000,226.614000,290.337000,239.960000,311.594000,226.614000L285.815000,266.636000C285.815000,266.636000,247.372000,195.630000,174.555000,182.966000L188.323000,143.619000Z" fill="rgb(131,124,73)" stroke="none" stroke-width="1"/><path id="dragon-egg-path2" d="M235.547000,295.021000L199.544000,269.015000C196.611000,266.897000,196.252000,262.664000,198.787000,260.082000L213.618000,244.974000C216.536000,242.002000,216.117000,237.135000,212.721000,234.724000C202.525000,227.483000,181.789000,212.726000,161.685000,198.245000C141.643000,259.262000,137.735000,337.129000,137.735000,337.129000L238.914000,337.129000L235.547000,295.021000Z" fill="rgb(198,117,62)" stroke="none" stroke-width="1"/><g id="dragon-egg-g1_tr" transform="translate(303.934147,190.176241) rotate(0)"><g id="dragon-egg-g1" transform="translate(-294.110947,-190.176239)"><path id="dragon-egg-path3" d="M266.579000,231.220000C266.579000,231.220000,280.607000,181.682000,332.337000,175.545000L272.277000,147.933000L232.626000,198.996000L266.579000,231.220000Z" fill="rgb(255,244,178)" stroke="none" stroke-width="1"/><path id="dragon-egg-path4" d="M325.710435,172.097000C325.710435,172.097000,337.692067,132.517385,378.831951,134.107386C412.648562,135.413656,433.642612,153.810140,441.933453,164.212398C442.691473,165.164004,444.197491,164.404009,443.846724,163.234077C436.121664,137.506636,398.628840,42.996430,266.999434,54.524401L257.813000,67.851488L273.788813,142.158727L325.710435,172.097000Z" transform="matrix(1 0 0 1 2.11700000000002 0)" fill="rgb(255,244,178)" stroke="none" stroke-width="1"/><path id="dragon-egg-path5" d="M245.767473,82.893429C253.026059,108.087491,262.101342,160.262756,227.534000,195.999100L235.996125,201.881000C235.996125,201.881000,246.488139,191.486112,257.454826,173.827514C262.583304,165.568902,272.688108,162.024102,281.688682,165.526527L324.822923,182.312742C326.839146,183.097610,329.112295,182.189301,330.054353,180.223447L330.054353,180.223447C330.994589,178.258515,330.291234,175.892858,328.433539,174.779120L281.303295,146.522969C275.584436,143.094240,271.923711,137.045602,271.464526,130.339222C270.639086,118.275108,268.455224,98.078588,262.724522,81.491353C261.043576,76.628307,261.997479,71.235567,265.137065,67.177655L265.253684,67.027498C267.955040,63.537049,271.928267,61.345500,276.258637,61.011102C303.097274,58.939310,400.549281,59.993169,440.980343,177.727900C441.424951,179.022195,442.625756,179.910237,443.980535,179.910237L443.980535,179.910237C445.900183,179.910237,447.397090,178.211533,447.150187,176.285292C444.313990,154.215039,422.401570,38.997043,274.400942,43.343292C265.373946,43.608600,256.883578,47.814826,251.241251,54.945882L251.241251,54.945882C245.015831,62.813902,242.981386,73.222609,245.767473,82.893429Z" fill="url(#dragon-egg-path5-fill)" stroke="none" stroke-width="1"/><path id="dragon-egg-path6" d="M176.495000,169.375000C176.495000,169.375000,273.549000,181.855000,294.947000,276.616000L294.947000,337.129000L141.045000,337.129000C141.045000,337.129000,146.354000,230.904000,176.495000,169.375000Z" fill="url(#dragon-egg-path6-fill)" stroke="none" stroke-width="1"/><path id="dragon-egg-path7" d="M236.821000,201.881000C236.821000,201.881000,242.571000,196.235000,250.182000,186.181000C245.156000,185.765000,240.911000,184.662000,237.489000,183.394000C234.608000,187.573000,231.319000,191.626000,227.533000,195.497000L236.821000,201.881000Z" fill="rgb(198,117,62)" stroke="none" stroke-width="1"/></g></g><path id="dragon-egg-path8" d="M74.055000,402.715000C74.055000,402.715000,97.773000,482.345000,200.382000,482.345000C200.382000,482.345000,293.867000,482.345000,310.042000,402.715000C310.041000,402.715000,210.918000,376.586000,74.055000,402.715000Z" fill="rgb(198,189,124)" stroke="none" stroke-width="1"/><path id="dragon-egg-path9" d="M286.059000,397.968000L286.060000,397.965000C285.740000,397.913000,285.379000,397.860000,285.053000,397.807000C284.022000,397.642000,282.961000,397.476000,281.870000,397.310000C281.328000,397.227000,280.795000,397.145000,280.238000,397.062000C280.062000,397.036000,279.900000,397.009000,279.722000,396.983000C279.722000,396.984000,279.722000,396.986000,279.722000,396.987000C252.258000,392.923000,207.631000,388.825000,151.999000,392.647000L157.217000,426.802000C157.217000,426.802000,174.556000,421.287000,183.663000,417.772000C186.065000,416.845000,188.749000,417.134000,190.865000,418.601000C197.915000,423.489000,214.666000,434.442000,228.792000,438.585000C230.328000,439.035000,231.944000,438.937000,233.448000,438.389000C239.798000,436.079000,257.917000,429.121000,271.737000,420.193000C262.720000,440.319000,245.352000,466.134000,212.558000,481.443000C238.409000,478.341000,297.489000,464.506000,310.040000,402.715000C310.041000,402.715000,301.499000,400.479000,286.059000,397.968000Z" fill="rgb(131,124,73)" stroke="none" stroke-width="1"/><path id="dragon-egg-path10" d="M52.074000,347.141000C52.074000,347.141000,48.865000,386.851000,66.905000,416.569000C67.543000,417.619000,68.312000,418.579000,69.166000,419.463000C71.446000,421.823000,76.340000,426.716000,81.355000,430.636000C84.404000,433.019000,88.787000,432.474000,91.127000,429.392000C95.625000,423.468000,103.317000,414.023000,110.097000,409.088000C112.498000,407.340000,115.737000,407.373000,118.059000,409.226000C124.202000,414.127000,137.935000,424.282000,152.188000,429.447000C154.171000,430.167000,156.376000,429.840000,158.139000,428.681000C163.907000,424.891000,177.294000,415.946000,185.726000,409.124000C187.933000,407.339000,191.032000,407.229000,193.392000,408.807000C200.420000,413.504000,215.298000,422.882000,227.338000,426.654000C229.459000,427.318000,231.740000,426.938000,233.521000,425.609000C239.500000,421.147000,253.981000,410.098000,261.982000,401.923000C264.248000,399.609000,267.882000,399.374000,270.467000,401.326000C277.256000,406.455000,289.921000,416.235000,299.672000,425.011000C302.314000,427.388000,306.291000,427.413000,308.910000,425.013000C312.994000,421.274000,318.755000,415.915000,321.949000,412.575000C323.112000,411.360000,324.044000,410.002000,324.765000,408.482000C328.829000,399.916000,343.191000,366.803000,337.828000,336.772000L337.828000,320.182000L180.228000,330.551000L70.322000,337.602000L52.074000,347.141000Z" transform="matrix(1 0 0 1 -0.00125122000000 0)" fill="rgb(198,189,124)" stroke="none" stroke-width="1"/><path id="dragon-egg-path11" d="M337.828000,336.771000L337.828000,320.181000L312.320000,321.859000L312.320000,321.859000L180.228000,330.550000L126.240000,334.013000L140.751000,362.954000C140.751000,362.954000,156.463000,354.990000,165.512000,350.170000C167.827000,348.937000,170.659000,349.396000,172.476000,351.287000C178.112000,357.153000,191.296000,369.684000,208.738000,378.597000C210.724000,379.612000,213.119000,379.355000,214.885000,377.993000C220.141000,373.942000,231.415000,364.898000,239.231000,356.089000C241.416000,353.627000,245.222000,353.538000,247.589000,355.827000C252.865000,360.927000,261.507000,369.551000,267.037000,376.464000C268.815000,378.689000,271.969000,379.259000,274.431000,377.829000C276.695000,376.515000,279.635000,374.601000,282.899000,371.968000C280.490000,381.297000,276.927000,391.786000,271.574000,402.165000C278.566000,407.469000,290.426000,416.685000,299.700000,425.033000C302.329000,427.399000,306.285000,427.417000,308.893000,425.028000C312.987000,421.278000,318.774000,415.895000,321.970000,412.552000C323.119000,411.349000,324.041000,410.005000,324.754000,408.502000C328.805000,399.973000,343.195000,366.828000,337.828000,336.771000Z" transform="matrix(1 0 0 1 -0.74221802000000 0)" fill="rgb(131,124,73)" stroke="none" stroke-width="1"/><path id="dragon-egg-path12" d="M69.907000,239.308000C69.907000,239.308000,42.051000,282.428000,43.438000,337.555000C43.554000,342.137000,45.225000,346.543000,48.197000,350.034000C51.762000,354.222000,57.203000,360.296000,63.467000,366.210000C64.965000,367.625000,67.272000,367.704000,68.816000,366.339000C74.460000,361.349000,88.081000,349.683000,99.137000,343.223000C100.226000,342.586000,101.589000,342.780000,102.484000,343.669000C106.682000,347.839000,119.517000,359.763000,136.389000,367.642000C137.819000,368.310000,139.507000,368.046000,140.681000,366.991000C145.616000,362.551000,158.931000,350.311000,167.558000,339.940000C168.595000,338.693000,170.431000,338.527000,171.632000,339.616000C177.441000,344.883000,193.831000,359.220000,208.724000,367.343000C210.273000,368.188000,212.185000,367.855000,213.409000,366.584000C218.567000,361.226000,232.066000,346.737000,239.143000,334.755000C240.038000,333.238000,242.090000,332.940000,243.404000,334.112000C249.141000,339.234000,262.821000,351.769000,269.493000,360.607000C270.895000,362.463000,273.565000,362.708000,275.281000,361.138000C281.389000,355.546000,294.159000,343.003000,300.198000,330.765000C301.045000,329.048000,303.302000,328.675000,304.677000,330.005000C309.952000,335.107000,321.101000,346.409000,327.560000,356.728000C329.231000,359.396000,333.136000,359.280000,334.507000,356.446000C336.929000,351.439000,340.501000,344.647000,344.613000,338.703000C347.312000,334.803000,348.358000,330.012000,347.790000,325.302000C346.118000,311.430000,341.492000,283.196000,330.360000,267.241000C329.360000,265.808000,327.744000,264.961000,326.003000,264.812000C315.007000,263.874000,273.290000,259.550000,253.816000,246.638000C252.003000,245.436000,249.706000,245.260000,247.678000,246.047000L210.505000,260.461000C210.505000,260.461000,225.850000,271.244000,229.168000,275.393000C229.168000,275.393000,230.412000,306.913000,228.338000,317.282000C228.338000,317.282000,223.776000,298.618000,218.384000,290.323000C218.384000,290.323000,192.670000,281.614000,181.058000,257.559000L176.495000,239.310000L69.907000,239.310000Z" transform="matrix(1 0 0 1 -0.00125122000000 0)" fill="rgb(198,189,124)" stroke="none" stroke-width="1"/><path id="dragon-egg-path13" d="M334.506000,356.443000C336.928000,351.437000,340.500000,344.645000,344.612000,338.701000C347.312000,334.801000,348.356000,330.010000,347.789000,325.299000C346.117000,311.428000,341.491000,283.194000,330.359000,267.239000C329.359000,265.805000,327.743000,264.959000,326.002000,264.809000C316.044000,263.960000,280.941000,260.310000,259.930000,250.043000C270.442000,268.856000,289.004000,310.161000,280.941000,355.711000C287.387000,349.253000,295.676000,339.924000,300.198000,330.763000C301.045000,329.046000,303.302000,328.673000,304.677000,330.003000C309.952000,335.105000,321.101000,346.407000,327.560000,356.726000C329.229000,359.395000,333.135000,359.277000,334.506000,356.443000Z" fill="rgb(131,124,73)" stroke="none" stroke-width="1"/><path id="dragon-egg-path14" d="M170.107000,266.977000L182.534000,277.024000C184.194000,278.366000,186.632000,278.083000,187.938000,276.395000L191.205000,272.174000C187.385000,268.101000,183.818000,263.276000,181.058000,257.557000L176.495000,239.308000L150.593000,239.308000L135.110000,277.896000C135.110000,277.896000,153.156000,273.012000,164.904000,266.491000C166.570000,265.566000,168.625000,265.779000,170.107000,266.977000Z" fill="rgb(131,124,73)" stroke="none" stroke-width="1"/><path id="dragon-egg-path15" d="M309.244000,221.339000L279.898000,261.205000C277.982000,263.807000,278.732000,267.480000,281.533000,269.090000C289.020000,273.394000,302.887000,281.203000,311.726000,285.205000C313.922000,286.199000,316.482000,285.815000,318.278000,284.209000C322.954000,280.025000,332.137000,271.437000,337.035000,264.338000C338.378000,262.393000,338.582000,259.878000,337.681000,257.692000C334.730000,250.521000,326.960000,233.468000,315.283000,221.016000C313.599000,219.218000,310.705000,219.355000,309.244000,221.339000Z" fill="rgb(131,124,73)" stroke="none" stroke-width="1"/><path id="dragon-egg-path16" d="M69.221000,287.805000C66.376000,291.254000,63.105000,297.112000,61.608000,306.645000C61.328000,308.424000,61.316000,310.254000,61.593000,312.035000C61.998000,314.634000,63.031000,318.210000,65.628000,321.211000C66.997000,322.793000,69.431000,322.901000,70.940000,321.452000C71.905000,320.524000,73.037000,319.354000,74.133000,318.026000C76.400000,315.278000,77.808000,311.921000,78.225000,308.383000C78.755000,303.883000,78.980000,296.671000,76.658000,289.222000C75.646000,285.976000,71.384000,285.181000,69.221000,287.805000Z" fill="rgb(209,188,34)" stroke="none" stroke-width="1"/><path id="dragon-egg-path17" d="M93.133000,172.120000C93.133000,172.120000,68.330000,209.324000,56.936000,235.781000C56.117000,237.683000,55.641000,239.689000,55.439000,241.750000C55.036000,245.861000,54.483000,253.367000,54.788000,261.473000C54.984000,266.682000,60.509000,269.943000,65.119000,267.508000C74.726000,262.436000,89.700000,254.711000,99.854000,250.347000C101.835000,249.496000,104.107000,250.361000,105.050000,252.300000C107.906000,258.167000,114.794000,270.283000,126.379000,278.885000C130.327000,281.816000,135.692000,281.918000,139.733000,279.117000C146.466000,274.448000,157.317000,266.123000,166.197000,255.575000C167.474000,254.058000,169.778000,254.008000,171.053000,255.527000C173.424000,258.350000,177.192000,262.726000,180.842000,266.498000C182.424000,268.133000,185.096000,267.945000,186.402000,266.081000C191.563000,258.712000,203.977000,241.177000,214.521000,227.768000C216.168000,225.673000,215.728000,222.641000,213.570000,221.079000L174.007000,192.443000C174.007000,192.442000,127.141000,171.291000,93.133000,172.120000Z" transform="matrix(1 0 0 1 -0.00125122000000 0)" fill="rgb(198,189,124)" stroke="none" stroke-width="1"/><path id="dragon-egg-path18" d="M174.007000,192.442000C174.007000,192.442000,155.379000,184.039000,133.091000,178.033000L133.091000,182.579000C133.091000,182.579000,133.442000,195.196000,155.600000,216.072000C157.434000,217.800000,160.158000,218.192000,162.370000,216.983000L188.323000,202.804000L174.007000,192.442000Z" fill="rgb(131,124,73)" stroke="none" stroke-width="1"/><path id="dragon-egg-path19" d="M95.170000,204.593000C91.008000,207.364000,85.611000,212.573000,80.922000,222.293000C80.047000,224.107000,79.441000,226.062000,79.162000,228.057000C78.754000,230.969000,78.703000,235.132000,80.509000,239.184000C81.462000,241.321000,84.032000,242.225000,86.116000,241.162000C87.449000,240.482000,89.040000,239.596000,90.643000,238.529000C93.959000,236.322000,96.554000,233.185000,98.145000,229.534000C100.169000,224.889000,102.745000,217.243000,102.670000,208.518000C102.638000,204.716000,98.335000,202.485000,95.170000,204.593000Z" fill="rgb(209,188,34)" stroke="none" stroke-width="1"/><path id="dragon-egg-path20" d="M169.579000,102.659000C152.107000,108.758000,108.925000,127.159000,90.586000,164.983000L87.356000,186.520000C86.593000,191.601000,91.588000,195.644000,96.386000,193.805000C106.448000,189.949000,116.855000,185.893000,129.031000,184.211000C130.591000,183.995000,132.157000,184.726000,133.014000,186.047000C135.934000,190.548000,143.379000,201.073000,153.078000,207.780000C155.224000,209.263000,158.022000,209.430000,160.355000,208.263000L172.344000,202.268000C175.340000,200.770000,177.542000,198.058000,178.416000,194.824000C181.140000,184.746000,187.951000,162.001000,197.104000,148.797000C198.939000,146.150000,199.133000,142.719000,197.418000,139.993000C192.819000,132.680000,184.018000,118.149000,179.450000,107.070000C177.856000,103.205000,173.528000,101.280000,169.579000,102.659000Z" transform="matrix(1 0 0 1 -0.00125122000000 0)" fill="rgb(198,189,124)" stroke="none" stroke-width="1"/><path id="dragon-egg-path21" d="M145.320000,130.948000C139.724000,131.956000,131.737000,134.948000,122.448000,142.966000C120.714000,144.463000,119.198000,146.227000,118.004000,148.182000C116.261000,151.036000,114.324000,155.355000,114.376000,160.400000C114.403000,163.060000,116.675000,165.166000,119.330000,165C121.029000,164.894000,123.089000,164.689000,125.244000,164.301000C129.702000,163.499000,133.828000,161.400000,137.140000,158.312000C141.353000,154.383000,147.499000,147.571000,151.369000,138.436000C153.054000,134.455000,149.575000,130.181000,145.320000,130.948000Z" fill="rgb(209,188,34)" stroke="none" stroke-width="1"/></svg>