<?xml version="1.0" encoding="utf-8"?>
<!-- Generator: Adobe Illustrator 25.1.0, SVG Export Plug-In . SVG Version: 6.00 Build 0)  -->
<svg version="1.1" id="Layer_1" xmlns="http://www.w3.org/2000/svg" xmlns:xlink="http://www.w3.org/1999/xlink" x="0px" y="0px"
	 viewBox="0 0 705.3 2169.4" style="enable-background:new 0 0 705.3 2169.4;" xml:space="preserve">
<style type="text/css">
	.st0{fill:#8F1600;}
	.st1{fill:#9C0000;}
	.st2{filter:url(#AI_Woodgrain);}
	.st3{fill:#89272D;}
</style>
<filter  filterUnits="objectBoundingBox" height="150%" id="AI_Woodgrain" width="150%" x="-10%" y="-10%">
	<feGaussianBlur  id="blur" in="SourceGraphic" result="blur" stdDeviation="4"></feGaussianBlur>
	<feOffset  dx="4" dy="4" id="offset" in="blur" result="offsetBlurredAlpha"></feOffset>
	<feFlood  id="color" result="color" style="flood-color:black; flood-opacity:0.4"></feFlood>
	<feComposite  id="shadowColor" in="color" in2="offsetBlurredAlpha" operator="in" result="offsetBlurredAlpha"></feComposite>
	
		<feDiffuseLighting  diffuseConstant="1" id="diffuse" in="blur" lighting-color="white" result="diffuse" resultScale="1" surfaceScale="5">
		<feDistantLight  azimuth="135" elevation="60" id="light2"></feDistantLight>
	</feDiffuseLighting>
	
		<feSpecularLighting  in="blur" lighting-color="white" result="specularOut" specularConstant="1" specularExponent="10" surfaceScale="5">
		<feDistantLight  azimuth="135" elevation="60" id="light"></feDistantLight>
	</feSpecularLighting>
	<feComposite  in="specularOut" in2="SourceAlpha" operator="in" result="specularOut"></feComposite>
	<feComposite  in="SourceGraphic" in2="diffuse" k1="1" k2="0" k3="0" k4="0" operator="arithmetic" result="litPaint">
		</feComposite>
	<feComposite  in="litPaint" in2="specularOut" k1="0" k2="1" k3="1" k4="0" operator="arithmetic" result="litPaint">
		</feComposite>
	<feMerge>
		<feMergeNode  in="offsetBlurredAlpha"></feMergeNode>
		<feMergeNode  in="litPaint"></feMergeNode>
	</feMerge>
	
		<feTurbulence  baseFrequency=".05" in="SourceAlpha" numOctaves="10" result="Turbulence" stitchTiles="noStitch" type="fractalNoise">
		</feTurbulence>
	<feColorMatrix  in="Turbulence" result="Grayscale" type="matrix" values="1 0 0 0 0 1 0 0 0 0 1 0 0 0 0 0 0 0 0 1">
		</feColorMatrix>
	<feGaussianBlur  in="SourceAlpha" result="BlurredAlpha" stdDeviation="4"></feGaussianBlur>
	<feOffset  dx="-4" dy="-5" in="BlurredAlpha" result="OffsetBlurredAlpha"></feOffset>
	<feComposite  in="Grayscale" in2="OffsetBlurredAlpha" operator="in" result="CompBlurTurb"></feComposite>
	<feGaussianBlur  in="CompBlurTurb" result="CompBlurTurb2" stdDeviation="1.5"></feGaussianBlur>
	<feComponentTransfer  in="Grayscale" result="CompXferFire">
		<feFuncR  tableValues="2 0" type="table"></feFuncR>
		<feFuncG  tableValues=".7 0 " type="table"></feFuncG>
		<feFuncB  tableValues=".1 0" type="table"></feFuncB>
	</feComponentTransfer>
	<feComposite  in="CompXferFire" in2="SourceGraphic" operator="in" result="CompSourceFire"></feComposite>
	<feMerge  result="MergeAll">
		<feMergeNode  in="CompSourceFire"></feMergeNode>
	</feMerge>
</filter>
<g>
	
		<image style="overflow:visible;opacity:0.75;" width="286" height="256" xlink:href="EFBEE3E2.png"  transform="matrix(1 0 0 1 170 73.4399)">
	</image>
	<g>
		<path class="st0" d="M433.5,306.6C364.2,181,326.7,129.8,178.6,82c135.3,57.3,164.9,103.6,220.5,214.4L433.5,306.6z"/>
	</g>
</g>
<g>
	
		<image style="overflow:visible;opacity:0.75;" width="618" height="1661" xlink:href="EFBEE3E6.png"  transform="matrix(1 0 0 1 58 249.4399)">
	</image>
	<g>
		<g>
			<path class="st0" d="M389.2,405.5L377.4,434c-57.2-45.6-109.8-47.2-191.5-11.4C256,368.5,308.8,357.2,389.2,405.5z"/>
			<path class="st0" d="M372.9,451.1l-20.7,26.6c-8.8-29.6-85.7-16.4-167.8,0C254,444.4,320.7,421.3,372.9,451.1z"/>
			<path class="st1" d="M429.6,492.1c-9.3,35.6-8.6,63.2,0.6,86.9c28.5,36.9,46.5,88.5,62.6,143.3c7.3,67.6-22,119-60.9,166.3
				c34.1-66,55.7-122.2,44.3-155.5c-6.4-50.9-11.5-64.4-60.9-148.8C404.3,569.8,412.9,518.2,429.6,492.1z"/>
			<path class="st0" d="M248,1122.4C161.4,980.2,108.6,832.8,92.7,683.2c-21.4-104.6,17.2-232.1,96.9-290
				c77-60.2,150.1-55.7,215.1,10.5C402,455.7,375,495,337.4,525.3c5.8,77,63.4,163.5,119,240.6c-30-64.1-54.8-126-59.9-179.7
				c1-84,35.4-91.1,79.8-62.8l28.1,44.7l42.9,13.3l46.6,98.9l59.1,4.8l-74.7-147.3l-2.2-72.3c-22.2-24.4-37.9-48.6-57.7-70.4
				c1.3-45.4-8.2-91.1-23.7-136.9c-1,35.9-1.2,72-20,108.4c-59.2-33.4-117.7-48.6-178.1-48.5c-40.2,6.1-77.6,19.3-110.9,42.8
				c-47.2,41.3-89.3,86.6-105,146.4c-11.7,29.5-13.4,63.4-14.8,106.5C65,667,73.2,759.3,117.9,892.4
				C143.3,984.5,192,1064.8,248,1122.4z M477.9,454.9c-5.4-16.6-10.6-29-4.4-37.1c0,0,11.8,0.9,12.6-7.6
				c0.7-8.6,35.2,57.7,43.6,90.3C502.3,486.3,491.2,479.7,477.9,454.9z M460.2,715.5c4.7,17,5.6,31.7-7.4,38L441,729.7
				C452.2,733,457.7,726.6,460.2,715.5z M407.7,634.7c13.3,9.4,14.7-10.4,14.8-23.8c5.8,17.6,5.9,42.6-7.4,54.2L407.7,634.7z
				 M504.5,568.1c-4.9,15.6-16.5,16.2-34,3.8c16.2,0,24.4-6.6,22.2-21.9L504.5,568.1z M559.2,614.7c-3.7,13.5-14,9.9-24.4,5.7
				c13.2-3.1,16.3-15.4,15.5-31.4L559.2,614.7z M588.8,679.3c-6.4,13.4-23,2.1-40.7-7.6c22.8,0.6,36.9-0.3,26.6-30.4L588.8,679.3z"
				/>
			<path class="st0" d="M285.7,1188.1c58.6,121.8,95.8,245.1,84.3,371.8c-2.2,194.9-77.7,266.9-148.6,328
				c76.5-112.5,128.9-231.1,120.5-330.9C356.4,1438.3,329.3,1314.3,285.7,1188.1z"/>
		</g>
	</g>
</g>
<g class="st2">
	<path class="st3" d="M464.2,606.6c152.8,96.7,33.6,167.2,104.5,313.8l0.5,0.3c-124.1-89.1,14-228.6-104.3-313.4"/>
	<path class="st3" d="M625.5,879.1c31.4-86.3-48.4-99-68.6-175.7c-11.4,102,70.4,99.9,68.2,175.8"/>
	<path class="st3" d="M555.5,815.9c110.3,78.1,5.3,104.3,98.2,256.8l0.6,0.5c-119.5-71.2-27.9-166.9-97.8-255.6"/>
</g>
</svg>
