<svg id="Layer_1" data-name="Layer 1" xmlns="http://www.w3.org/2000/svg" viewBox="0 0 705.29 2169.44"><path d="M632,342.51C548.73,191.65,503.7,130.13,325.7,72.67c162.56,68.85,198.14,124.49,264.91,257.51Z" transform="translate(-190.49 -72.67)"/><path d="M578.72,461.3l-14.21,34.27c-68.7-54.8-131.89-56.71-230-13.71C418.77,416.88,482.18,403.3,578.72,461.3Z" transform="translate(-190.49 -72.67)"/><path d="M559.18,516.13l-24.87,32c-10.56-35.53-103-19.68-201.6,0C416.27,508.06,496.45,480.31,559.18,516.13Z" transform="translate(-190.49 -72.67)"/><path d="M409.09,1322.58c-104-170.87-167.47-348-186.51-527.73C196.83,669.2,243.22,516,338.93,446.45c92.56-72.32,180.32-66.89,258.44,12.57-3.3,62.62-35.74,109.75-80.82,146.21,7,92.5,76.16,196.46,143,289-36-77-65.82-151.35-71.94-215.89,1.22-100.93,42.55-109.47,95.92-75.39l33.74,53.69,51.51,16,56,118.8,71,5.71-89.7-177-2.66-86.81c-26.61-29.35-45.58-58.41-69.27-84.53,1.53-54.51-9.85-109.39-28.42-164.49-1.22,43.13-1.39,86.44-24,130.22-71.1-40.13-141.4-58.41-214-58.26-48.3,7.33-93.2,23.21-133.21,51.41-56.73,49.64-107.33,104-126.12,175.91-14,35.46-16.05,76.2-17.76,127.93-1.41,63.9,8.53,174.84,62.17,334.69C283.28,1156.86,341.84,1253.34,409.09,1322.58ZM685.29,520.7c-6.47-20-12.72-34.88-5.33-44.55,0,0,14.21,1.14,15.1-9.14s42.29,69.35,52.4,108.52C714.6,558.4,701.28,550.4,685.29,520.7ZM664,833.68c5.63,20.4,6.72,38.07-8.88,45.7l-14.21-28.56C654.42,854.7,661,847.07,664,833.68Zm-63.06-97.09c15.92,11.28,17.67-12.47,17.76-28.56,6.92,21.2,7.09,51.16-8.88,65.11Zm116.34-80c-5.84,18.8-19.86,19.44-40.85,4.57,19.42,0,29.3-7.93,26.64-26.27Zm65.72,56c-4.48,16.26-16.76,11.92-29.3,6.86,15.8-3.71,19.55-18.56,18.65-37.7Zm35.53,77.68c-7.68,16.09-27.61,2.49-48.85-9.14,27.43.75,44.29-.35,32-36.55Z" transform="translate(-190.49 -72.67)"/><path d="M646.21,652.06c2.23,44.14,13,75.49,32,99.38,46,31.95,85.21,84.62,123.44,141.64,32.8,74.82,17.74,144.34-9.77,212.47,15.24-87.95,19.7-160.17-5.32-194.19-25.76-56-36.42-69.68-123.45-148.5C645.33,750.3,636.46,688.08,646.21,652.06Z" transform="translate(-190.49 -72.67)"/><path d="M454.38,1401.4C524.8,1547.73,569.51,1695.85,555.63,1848c-2.65,234.08-93.29,320.59-178.51,394.08C469,2106.88,532,1964.41,521.88,1844.6,539.39,1702,506.78,1553,454.38,1401.4Z" transform="translate(-190.49 -72.67)"/></svg>