<svg xmlns="http://www.w3.org/2000/svg" viewBox="0 0 687.01 1026"><defs><style>.cls-1,.cls-3,.cls-6{fill:none;}.cls-1,.cls-2,.cls-4{stroke:#fff;}.cls-1,.cls-2,.cls-3,.cls-4,.cls-6,.cls-7{stroke-miterlimit:10;}.cls-2{fill:#4b423d;}.cls-3{stroke:#1e130d;stroke-linecap:round;stroke-width:20px;}.cls-4{fill:#ad8a56;}.cls-5{fill:#1e130d;}.cls-6{stroke:#666;}.cls-7{fill:#837c49;stroke:#5c5c5c;stroke-width:1.01px;}</style></defs><g id="Layer_2" data-name="Layer 2"><ellipse class="cls-1" cx="508.02" cy="60.82" rx="11.74" ry="27.81"/><ellipse class="cls-2" cx="472.23" cy="606.15" rx="92.35" ry="100.15"/><path class="cls-3" d="M391,521.54c-35.31-66.84-91.31-120.38-152-108.8q-76.31,17-74.34,72.39c.92,24.3,12.89,34,35.21,30.13,13.14-3.15,18.39-20.35,14.48-32.87"/><path class="cls-4" d="M358.52,371l5.87,1.57,4.31-61.44h-4.31C354,286.63,333.69,268,300.61,256.73c-13.51-9.39-25.4-19-33.26-29.35C219.22,185.52,201.61,28.6,199.26,35.65c-35.21,43.82,30.53,188.21,22.5,188.21-24.17-33.65-42.84-139.69-48.35-129.52-4.77,33.51,1.18,73.91,21.94,123.84s19,51.4-5,4.42l-17.29-45.3.72,43.29,7,27.58,9.89,31.65c27,45.59,44.22,83.35,62.22,91.17,25.83,8.61,23.09-45.58,29.35-15.65C284,403.47,328.13,411.17,358.52,371Z"/><path class="cls-4" d="M625.32,240.36C667.25,136.6,669,92.41,654.8,71.83c-9.25,73.52-26.26,128.06-59,144.31,40.72-40,59.23-167.48,49-204.83-4.82,0-40.17,142.44-73,172.18-44.65,71.18-117.39,74.6-129.26,127.56l-7.43,2.35,5.39,45.07c14.74,28.3,35.79,38.1,62.21,32.09L539,358.47c20.18,7,37.45,8.3,48-3.85q3.39-26.81,28.7-42.39c49.59-55.86,53.68-113.29,49.56-171-10.37,40-20.66,81.49-32.35,95"/><path class="cls-3" d="M400,684.37c-64.69,175.59,65.91,168.72,33.73-11"/><path class="cls-5" d="M36.63,223.78c17.22-14.09,152.22-14.09,182.35,1.56-1.21,12.27-30.1,18.73-64.56,20.53V261.2H100.81v-16C63.67,242.32,33,234.72,36.63,223.78Z"/><line class="cls-6" x1="386.62" y1="665.83" x2="389.74" y2="650.37"/><path class="cls-3" d="M144.49,856.52q8.59-4.89,13.3-26.21-10.56-24.66-32.09-16.44-22.7,5.88-25,36.79c3,51,37.84,76.92,102.91,79,102.17-32.94,140-110.87,116.61-231.65Q284.36,585.81,146.79,516.26c-83.7-31.68-126.45-85.45-113.87-169,16.4-54.11,47.92-86.88,100.17-83,46.31,6.43,70.17,31.56,70,76.7-7.67,28.17-22.93,46.34-48.53,50.87-15.06-.78-26.94-7-32.87-23.48q-.39-21.53,22.7-32.09,16.83,2.16,24.26,16.05"/><path class="cls-3" d="M381,762.65c-57.75,150.69-191.82,262.8-300.76,208.7C10.94,909.73,20,853,59.4,844.05c11.95-8,27.65,3.31,33.39,24.52Q86.54,889,67.75,891"/><rect class="cls-5" x="235.9" y="873.33" width="113.68" height="24.07" transform="translate(1154.3 1242.12) rotate(130.79)"/><path class="cls-7" d="M171.86,99.62c-6.57-7-55.5-5.46-111.94-2.35l.54,119.59c39.44-4.07,76.91-4.86,111.4-.72Z"/><path class="cls-1" d="M115.89,64.4c7.19-15.47,12.12,24.26,5.85,30.23"/><path class="cls-1" d="M111.55,95c-.33-17.56.81-32.95,4.34-30.56"/><path class="cls-3" d="M515.45,866.34c-4.4-32.19,2.93-55.51,13.56-53.74,22.89,73.52,2.16,133-20.35,133-32.34-20.87-57.51-238-12-373.57,0,0,59-136.2,58.44-194.09-.29-28.28-.41-121.21-33.39-128.87-38.45-8.92-40.81,140-13.05,141.92,8.86.61,18.93-17.35,19.31-31.83.9-34.42-13.78-45.15-24-17.74"/><rect class="cls-5" x="504.87" y="226.2" width="29.78" height="22.2" transform="translate(1039.52 474.59) rotate(180)"/><path class="cls-3" d="M548.79,836.33c32.16,90.82,10.63,164.33-38.23,164.35-99.33-43-75.41-589.52-27.27-586.44,40.39,23.4,30.21,71.89,13.32,98.52-7.36,0-13.32-9.29-13.32-20.78"/><path class="cls-7" d="M570.43,66.38c-7.33-7.86-61.88-6.09-124.81-2.62l.6,133.41c44-4.54,85.75-5.42,124.21-.81Z"/><path class="cls-4" d="M441.45,357.88,436,314.05l4.31-65.74c-2.15-26.81-38.74-73.17-45.39-133.82q19.17-59.1,7-62.61c-8.43,5.55-18.57,21.37-29,38.74a34.18,34.18,0,0,0-20.74-5.09q-8.4-32.47-16.82-33.65c-7.87,6.28-9.5,19-8.22,34.82-8.94,2.91-15.61,6.37-17.61,11q1,8-1.95,9-12.53-3.72-25.05,7.43c-1.95,12.49,5.87,30.92,5.87,52.44,1.62,12.28,12.1,15.65,26.32,15.26q10.51-.39,21-13.3c6-10.67,8.7-5,11,2.74-2.47,7.44-7.62,14.46-15.07,21.13q-16.92-6.27-33.85,3.13c-8.47,13.07-.11,30.53,13.31,49.3q20.53,8.42,41.08-2.74c5.87-19.69,12.39-34.18,19.89-41.1l.07-1.94c7.85,14.07,1.61,62.7-3.91,109.56L364,370c-7,106,30.92,123.26,23.88,165.14l15.49,186.9c59.63-59,16.37-129.39,48.29-246C454.93,434.16,453.3,394.11,441.45,357.88ZM361.61,114.42c-5.89,2.54-11.39,2.9-12.31.8s3.12-5.88,9-8.43,11.39-2.9,12.31-.8S367.49,111.87,361.61,114.42Z"/><path class="cls-4" d="M397.19,614.57c3.73-32.49,4.38-56.75-5.1-54-6.35,5.95-8.77,15.63-9.39,27,4.08-4,6.47-2,8.22,2.35l16.44,64.57c-21.83-3.41-37-11.8-43.05-27q-6.45,0,3.52-21.13-11.34-43.83,8.61-62.61,25.28-27.09,42.65,16.61c2,89-13.26,173.81-19.35,162.6-10.52,1.49-16.34-12.09-12.34-57.13l-8.36-21"/><path class="cls-5" d="M414.75,207c-1.23,12,44.21,21.88,98.76,21.88s98.75-9.8,98.75-21.88C614.11,186.59,417.26,182.33,414.75,207Z"/></g></svg>