<svg xmlns="http://www.w3.org/2000/svg" viewBox="0 0 686.91 1026"><defs><style>.cls-1,.cls-3,.cls-6{fill:none;}.cls-1,.cls-2,.cls-4{stroke:#fff;}.cls-1,.cls-2,.cls-3,.cls-4,.cls-6,.cls-7{stroke-miterlimit:10;}.cls-2{fill:#4b423d;}.cls-3{stroke:#1e130d;stroke-linecap:round;stroke-width:20px;}.cls-4{fill:#ad8a56;stroke-width:0.5px;}.cls-5{fill:#1e130d;}.cls-6{stroke:#666;}.cls-7{fill:#837c49;stroke:#5c5c5c;stroke-width:1.01px;}</style></defs><g id="Layer_2" data-name="Layer 2"><ellipse class="cls-1" cx="185.56" cy="59.77" rx="11.74" ry="27.81"/><ellipse class="cls-2" cx="221.36" cy="605.1" rx="92.35" ry="100.15"/><path class="cls-3" d="M302.56,520.49c35.3-66.83,91.31-120.37,152-108.79q76.31,17,74.35,72.39c-.92,24.3-12.9,34-35.22,30.13-13.13-3.15-18.39-20.35-14.48-32.87"/><path class="cls-4" d="M335.06,370l-5.87,1.57-4.31-61.44h4.31c10.35-24.49,30.7-43.16,63.78-54.39,13.51-9.39,25.41-19.05,33.26-29.35C474.36,184.47,492,27.56,494.32,34.6c35.22,43.83-30.52,188.22-22.5,188.22C496,189.17,514.67,83.12,520.18,93.3c4.76,33.51-1.18,73.91-21.95,123.84s-19,51.4,5,4.42l17.29-45.31-.72,43.29-7,27.59-9.89,31.65c-27,45.58-44.22,83.34-62.22,91.17-25.83,8.61-23.09-45.59-29.35-15.65C409.6,402.43,365.45,410.12,335.06,370Z"/><path class="cls-4" d="M68.26,239.31C26.34,135.56,24.59,91.37,38.79,70.79,48,144.31,65,198.85,97.74,215.09,57,175.05,38.51,47.61,48.7,10.27c4.82,0,40.17,142.43,73,172.17C166.39,253.62,239.13,257.05,251,310l7.44,2.35-5.39,45.07c-14.75,28.3-35.79,38.1-62.22,32.08l-36.22-32.08c-20.17,7-37.45,8.3-48-3.86q-3.39-26.81-28.69-42.39c-49.59-55.85-53.69-113.28-49.57-171,10.37,40,20.66,81.5,32.35,95"/><path class="cls-3" d="M293.55,683.33c64.7,175.59-65.91,168.72-33.72-11"/><path class="cls-5" d="M657,222.73c-17.22-14.09-152.22-14.09-182.35,1.57,1.21,12.27,30.11,18.73,64.57,20.52v15.33h53.61v-16C629.91,241.28,660.54,233.67,657,222.73Z"/><line class="cls-6" x1="306.97" y1="664.79" x2="303.85" y2="649.32"/><path class="cls-3" d="M549.1,855.48q-8.61-4.89-13.31-26.22,10.58-24.64,32.09-16.43,22.7,5.86,25,36.78c-3,51-37.83,76.92-102.91,79C387.84,895.71,350,817.78,373.4,697q35.82-112.25,173.4-181.78c83.69-31.68,126.44-85.45,113.86-169-16.4-54.11-47.91-86.88-100.17-83-46.3,6.43-70.17,31.56-70,76.7,7.67,28.17,22.92,46.34,48.52,50.86,15.07-.77,26.95-7,32.87-23.47q.39-21.53-22.7-32.09-16.82,2.14-24.26,16"/><path class="cls-3" d="M312.55,761.61c57.76,150.68,191.82,262.8,300.76,208.7C682.65,908.69,673.62,852,634.18,843c-11.94-8-27.64,3.31-33.39,24.52Q607.06,888,625.84,890"/><rect class="cls-5" x="344" y="872.29" width="113.68" height="24.07" transform="translate(808.51 3.13) rotate(49.21)"/><path class="cls-7" d="M521.72,98.57c6.57-7,55.5-5.46,111.94-2.34l-.54,119.59c-39.44-4.07-76.9-4.86-111.4-.73Z"/><path class="cls-1" d="M577.69,63.36c-7.18-15.47-12.11,24.26-5.85,30.23"/><path class="cls-1" d="M582,93.92c.33-17.56-.81-32.95-4.34-30.56"/><path class="cls-3" d="M178.14,865.3c4.39-32.19-2.93-55.52-13.57-53.74-22.89,73.52-2.16,133,20.35,133,32.35-20.87,57.52-238,12-373.56,0,0-59-136.21-58.44-194.09.3-28.28.42-121.22,33.4-128.87,38.45-8.92,40.8,140,13,141.91-8.86.62-18.93-17.35-19.31-31.82-.89-34.42,13.78-45.15,24-17.74"/><rect class="cls-5" x="158.93" y="225.16" width="29.78" height="22.2"/><path class="cls-3" d="M144.79,835.29C112.63,926.11,134.16,999.62,183,999.63c99.34-43,75.42-589.52,27.27-586.43-40.39,23.4-30.21,71.89-13.32,98.52,7.37,0,13.32-9.3,13.32-20.78"/><path class="cls-7" d="M123.16,65.33C130.48,57.48,185,59.24,248,62.71l-.61,133.41c-44-4.53-85.75-5.42-124.21-.8Z"/><path class="cls-4" d="M252.13,356.83,257.61,313l-4.3-65.74c2.15-26.81,38.73-73.18,45.39-133.83q-19.18-59.08-7.05-62.61c8.44,5.55,18.57,21.38,29,38.74a34.17,34.17,0,0,1,20.74-5.08Q349.77,52,358.17,50.83c7.88,6.29,9.51,19,8.22,34.83C375.34,88.57,382,92,384,96.62q-1,8,2,9,12.53-3.72,25,7.43c1.95,12.49-5.87,30.91-5.87,52.44-1.62,12.28-12.1,15.65-26.31,15.26q-10.51-.39-21-13.31c-6-10.67-8.7-5-10.95,2.74,2.47,7.44,7.61,14.47,15.06,21.13q16.92-6.26,33.85,3.13c8.47,13.08.11,30.54-13.3,49.31q-20.55,8.42-41.09-2.74c-5.86-19.69-12.39-34.18-19.89-41.11l-.07-1.94c-7.85,14.08-1.61,62.7,3.92,109.57l4.3,61.43c7,106.05-30.91,123.27-23.87,165.14L290.24,721c-59.63-59-16.37-129.38-48.28-246C238.66,433.12,240.28,393.07,252.13,356.83ZM332,113.37c5.88,2.55,11.39,2.91,12.3.81s-3.12-5.88-9-8.43-11.39-2.91-12.3-.8S326.1,110.82,332,113.37Z"/><path class="cls-4" d="M296.39,613.53c-3.73-32.5-4.37-56.75,5.1-54,6.36,6,8.77,15.63,9.39,27-4.08-4-6.47-2-8.22,2.35l-16.43,64.56c21.82-3.41,37-11.79,43-27q6.47,0-3.52-21.13,11.36-43.83-8.61-62.61-25.27-27.09-42.65,16.62c-1.95,89,13.26,173.81,19.35,162.6,10.53,1.49,16.35-12.1,12.34-57.13l8.36-21"/><path class="cls-5" d="M278.84,205.94c1.22,12-44.22,21.88-98.76,21.88S81.32,218,81.32,205.94C79.48,185.55,276.32,181.29,278.84,205.94Z"/></g></svg>